<svg xmlns="http://www.w3.org/2000/svg" viewBox="0 0 512 512" role="img" aria-labelledby="title">
  <title id="title">Vehicle capture guide</title>
  <rect width="512" height="512" rx="80" fill="#18202a"/>
  <path d="M118 292c-19 0-34-15-34-34v-34c0-18 14-33 32-34l24-2 42-68c10-16 27-26 46-26h89c19 0 36 10 46 26l42 68 23 2c18 1 32 16 32 34v34c0 19-15 34-34 34h-8c-5 33-34 58-68 58s-63-25-68-58H198c-5 33-34 58-68 58s-63-25-68-58h-8Z" fill="#f6f8f7"/>
  <path d="M197 146h118c10 0 19 5 24 14l27 44H148l27-44c5-9 14-14 24-14Z" fill="#1f7a8c"/>
  <circle cx="130" cy="292" r="34" fill="#18202a"/>
  <circle cx="382" cy="292" r="34" fill="#18202a"/>
  <rect x="199" y="239" width="114" height="34" rx="8" fill="#b7e04b"/>
  <path d="M120 412h272" stroke="#b7e04b" stroke-width="16" stroke-linecap="round"/>
</svg>

